<mxfile host="app.diagrams.net" agent="Mozilla/5.0 (Windows NT 10.0; Win64; x64) AppleWebKit/537.36 (KHTML, like Gecko) Chrome/140.0.0.0 Safari/537.36" version="28.2.1">
  <diagram name="Trang-1" id="LYzxF1-JJ99GFmE8SYtx">
    <mxGraphModel dx="1895" dy="468" grid="1" gridSize="10" guides="1" tooltips="1" connect="1" arrows="1" fold="1" page="1" pageScale="1" pageWidth="827" pageHeight="1169" math="0" shadow="0">
      <root>
        <mxCell id="0" />
        <mxCell id="1" parent="0" />
        <mxCell id="cdQUnSWK5m7K0tMTcb-a-6" style="edgeStyle=orthogonalEdgeStyle;rounded=0;orthogonalLoop=1;jettySize=auto;html=1;exitX=0.5;exitY=1;exitDx=0;exitDy=0;" edge="1" parent="1" source="cdQUnSWK5m7K0tMTcb-a-1" target="cdQUnSWK5m7K0tMTcb-a-4">
          <mxGeometry relative="1" as="geometry" />
        </mxCell>
        <mxCell id="cdQUnSWK5m7K0tMTcb-a-7" style="edgeStyle=orthogonalEdgeStyle;rounded=0;orthogonalLoop=1;jettySize=auto;html=1;exitX=0.5;exitY=1;exitDx=0;exitDy=0;" edge="1" parent="1" source="cdQUnSWK5m7K0tMTcb-a-1" target="cdQUnSWK5m7K0tMTcb-a-2">
          <mxGeometry relative="1" as="geometry" />
        </mxCell>
        <mxCell id="cdQUnSWK5m7K0tMTcb-a-8" style="edgeStyle=orthogonalEdgeStyle;rounded=0;orthogonalLoop=1;jettySize=auto;html=1;exitX=0.5;exitY=1;exitDx=0;exitDy=0;" edge="1" parent="1" source="cdQUnSWK5m7K0tMTcb-a-1" target="cdQUnSWK5m7K0tMTcb-a-5">
          <mxGeometry relative="1" as="geometry" />
        </mxCell>
        <mxCell id="cdQUnSWK5m7K0tMTcb-a-1" value="ESP32" style="rounded=0;whiteSpace=wrap;html=1;" vertex="1" parent="1">
          <mxGeometry x="380" y="140" width="120" height="60" as="geometry" />
        </mxCell>
        <mxCell id="cdQUnSWK5m7K0tMTcb-a-2" value="&lt;span style=&quot;color: rgba(0, 0, 0, 0.8); font-family: &amp;quot;Helvetica Neue&amp;quot;, Helvetica, Arial, 文泉驛正黑, &amp;quot;WenQuanYi Zen Hei&amp;quot;, &amp;quot;Hiragino Sans GB&amp;quot;, &amp;quot;儷黑 Pro&amp;quot;, &amp;quot;LiHei Pro&amp;quot;, &amp;quot;Heiti TC&amp;quot;, 微軟正黑體, &amp;quot;Microsoft JhengHei UI&amp;quot;, &amp;quot;Microsoft JhengHei&amp;quot;, SHPBurmese, sans-serif; font-size: 14px; text-align: start; white-space-collapse: preserve; background-color: rgb(255, 255, 255);&quot;&gt;Điện từ vuông đẩy nhỏ&lt;/span&gt;" style="whiteSpace=wrap;html=1;" vertex="1" parent="1">
          <mxGeometry x="150" y="350" width="160" height="60" as="geometry" />
        </mxCell>
        <mxCell id="cdQUnSWK5m7K0tMTcb-a-4" value="&lt;span style=&quot;color: rgba(0, 0, 0, 0.8); font-family: &amp;quot;Helvetica Neue&amp;quot;, Helvetica, Arial, 文泉驛正黑, &amp;quot;WenQuanYi Zen Hei&amp;quot;, &amp;quot;Hiragino Sans GB&amp;quot;, &amp;quot;儷黑 Pro&amp;quot;, &amp;quot;LiHei Pro&amp;quot;, &amp;quot;Heiti TC&amp;quot;, 微軟正黑體, &amp;quot;Microsoft JhengHei UI&amp;quot;, &amp;quot;Microsoft JhengHei&amp;quot;, SHPBurmese, sans-serif; font-size: 14px; text-align: start; white-space-collapse: preserve; background-color: rgb(255, 255, 255);&quot;&gt;Điện từ vuông đẩy nhỏ&lt;/span&gt;" style="whiteSpace=wrap;html=1;" vertex="1" parent="1">
          <mxGeometry x="360" y="350" width="160" height="60" as="geometry" />
        </mxCell>
        <mxCell id="cdQUnSWK5m7K0tMTcb-a-5" value="&lt;span style=&quot;color: rgba(0, 0, 0, 0.8); font-family: &amp;quot;Helvetica Neue&amp;quot;, Helvetica, Arial, 文泉驛正黑, &amp;quot;WenQuanYi Zen Hei&amp;quot;, &amp;quot;Hiragino Sans GB&amp;quot;, &amp;quot;儷黑 Pro&amp;quot;, &amp;quot;LiHei Pro&amp;quot;, &amp;quot;Heiti TC&amp;quot;, 微軟正黑體, &amp;quot;Microsoft JhengHei UI&amp;quot;, &amp;quot;Microsoft JhengHei&amp;quot;, SHPBurmese, sans-serif; font-size: 14px; text-align: start; white-space-collapse: preserve; background-color: rgb(255, 255, 255);&quot;&gt;Điện từ vuông đẩy nhỏ&lt;/span&gt;" style="whiteSpace=wrap;html=1;" vertex="1" parent="1">
          <mxGeometry x="560" y="350" width="160" height="60" as="geometry" />
        </mxCell>
        <mxCell id="cdQUnSWK5m7K0tMTcb-a-9" value="Mạch điều phối" style="rounded=0;whiteSpace=wrap;html=1;" vertex="1" parent="1">
          <mxGeometry x="380" y="240" width="120" height="60" as="geometry" />
        </mxCell>
        <mxCell id="cdQUnSWK5m7K0tMTcb-a-11" value="Nguồn cấp điện &lt;br&gt;chính từ mạch" style="text;html=1;align=center;verticalAlign=middle;resizable=0;points=[];autosize=1;strokeColor=none;fillColor=none;" vertex="1" parent="1">
          <mxGeometry x="560" y="150" width="110" height="40" as="geometry" />
        </mxCell>
        <mxCell id="cdQUnSWK5m7K0tMTcb-a-12" value="" style="endArrow=classic;html=1;rounded=0;entryX=1;entryY=0.5;entryDx=0;entryDy=0;exitX=0.003;exitY=0.491;exitDx=0;exitDy=0;exitPerimeter=0;" edge="1" parent="1" source="cdQUnSWK5m7K0tMTcb-a-11" target="cdQUnSWK5m7K0tMTcb-a-1">
          <mxGeometry width="50" height="50" relative="1" as="geometry">
            <mxPoint x="550" y="300" as="sourcePoint" />
            <mxPoint x="600" y="250" as="targetPoint" />
          </mxGeometry>
        </mxCell>
        <mxCell id="cdQUnSWK5m7K0tMTcb-a-15" style="edgeStyle=orthogonalEdgeStyle;rounded=0;orthogonalLoop=1;jettySize=auto;html=1;exitX=0.5;exitY=1;exitDx=0;exitDy=0;entryX=0.5;entryY=0;entryDx=0;entryDy=0;" edge="1" parent="1" source="cdQUnSWK5m7K0tMTcb-a-13" target="cdQUnSWK5m7K0tMTcb-a-14">
          <mxGeometry relative="1" as="geometry" />
        </mxCell>
        <mxCell id="cdQUnSWK5m7K0tMTcb-a-13" value="Khởi động" style="rounded=0;whiteSpace=wrap;html=1;" vertex="1" parent="1">
          <mxGeometry x="820" y="140" width="120" height="60" as="geometry" />
        </mxCell>
        <mxCell id="cdQUnSWK5m7K0tMTcb-a-14" value="6 nút, về 0" style="rounded=0;whiteSpace=wrap;html=1;" vertex="1" parent="1">
          <mxGeometry x="820" y="250" width="120" height="60" as="geometry" />
        </mxCell>
        <mxCell id="cdQUnSWK5m7K0tMTcb-a-23" style="edgeStyle=orthogonalEdgeStyle;rounded=0;orthogonalLoop=1;jettySize=auto;html=1;exitX=1;exitY=0.5;exitDx=0;exitDy=0;" edge="1" parent="1" source="cdQUnSWK5m7K0tMTcb-a-18" target="cdQUnSWK5m7K0tMTcb-a-1">
          <mxGeometry relative="1" as="geometry" />
        </mxCell>
        <mxCell id="cdQUnSWK5m7K0tMTcb-a-18" value="Bluetooth" style="rounded=0;whiteSpace=wrap;html=1;" vertex="1" parent="1">
          <mxGeometry x="90" y="140" width="120" height="60" as="geometry" />
        </mxCell>
        <mxCell id="cdQUnSWK5m7K0tMTcb-a-20" value="Json{&lt;br&gt;true,&lt;div&gt;true,&lt;/div&gt;&lt;div&gt;false,&lt;/div&gt;&lt;div&gt;true,&lt;/div&gt;&lt;div&gt;true,&lt;/div&gt;&lt;div&gt;false&lt;br&gt;}&lt;/div&gt;" style="text;html=1;align=center;verticalAlign=middle;resizable=0;points=[];autosize=1;strokeColor=none;fillColor=none;" vertex="1" parent="1">
          <mxGeometry x="-20" y="20" width="50" height="130" as="geometry" />
        </mxCell>
        <mxCell id="cdQUnSWK5m7K0tMTcb-a-22" style="edgeStyle=orthogonalEdgeStyle;rounded=0;orthogonalLoop=1;jettySize=auto;html=1;exitX=1;exitY=0.5;exitDx=0;exitDy=0;entryX=0;entryY=0.5;entryDx=0;entryDy=0;" edge="1" parent="1" source="cdQUnSWK5m7K0tMTcb-a-21" target="cdQUnSWK5m7K0tMTcb-a-18">
          <mxGeometry relative="1" as="geometry" />
        </mxCell>
        <mxCell id="cdQUnSWK5m7K0tMTcb-a-21" value="Phần mềm" style="rounded=0;whiteSpace=wrap;html=1;" vertex="1" parent="1">
          <mxGeometry x="-190" y="140" width="120" height="60" as="geometry" />
        </mxCell>
        <mxCell id="cdQUnSWK5m7K0tMTcb-a-24" value="Json{&lt;br&gt;true,&lt;div&gt;true,&lt;/div&gt;&lt;div&gt;false,&lt;/div&gt;&lt;div&gt;true,&lt;/div&gt;&lt;div&gt;true,&lt;/div&gt;&lt;div&gt;false&lt;br&gt;}&lt;/div&gt;" style="text;html=1;align=center;verticalAlign=middle;resizable=0;points=[];autosize=1;strokeColor=none;fillColor=none;" vertex="1" parent="1">
          <mxGeometry x="140" y="215" width="50" height="130" as="geometry" />
        </mxCell>
        <mxCell id="cdQUnSWK5m7K0tMTcb-a-25" value="True" style="text;html=1;align=center;verticalAlign=middle;resizable=0;points=[];autosize=1;strokeColor=none;fillColor=none;" vertex="1" parent="1">
          <mxGeometry x="255" y="238" width="50" height="30" as="geometry" />
        </mxCell>
        <mxCell id="cdQUnSWK5m7K0tMTcb-a-26" value="false" style="text;html=1;align=center;verticalAlign=middle;resizable=0;points=[];autosize=1;strokeColor=none;fillColor=none;" vertex="1" parent="1">
          <mxGeometry x="350" y="305" width="50" height="30" as="geometry" />
        </mxCell>
        <mxCell id="cdQUnSWK5m7K0tMTcb-a-27" value="false" style="text;html=1;align=center;verticalAlign=middle;resizable=0;points=[];autosize=1;strokeColor=none;fillColor=none;" vertex="1" parent="1">
          <mxGeometry x="560" y="238" width="50" height="30" as="geometry" />
        </mxCell>
      </root>
    </mxGraphModel>
  </diagram>
</mxfile>
